<svg xmlns="http://www.w3.org/2000/svg" viewBox="0 0 256 256" shape-rendering="crispEdges">
<rect width="256" height="256" fill="#0f172a"/>
<path fill="#22d3ee" d="M48 48h32v32H48zM56 56v16h16V56zm16 8h-8v8h8zM176 48h32v32h-32zM184 56v16h16V56zm16 8h-8v8h8zM48 176h32v32H48zM56 184v16h16v-16zm16 8h-8v8h8zM128 48h8v8h-8zM144 48h8v8h-8zM160 48h8v8h-8zM88 56h8v8h-8zM104 56h8v8h-8zM120 56h8v8h-8zM136 56h8v8h-8zM152 56h8v8h-8zM168 56h-8v8h8zM48 88h8v8H48zM48 104h8v8H48zM48 120h8v8H48zM48 136h8v8H48zM48 152h8v8H48zM48 168h-8v8h8zM56 88h16v16H56zM88 88h8v8h-8zM104 88h8v8h-8zM120 88h8v8h-8zM136 88h8v8h-8zM152 88h8v8h-8zM168 88h8v8h-8zM184 88h16v16h-16zM200 88h8v8h-8zM56 120h16v16H56zM80 120h8v8h-8zM96 120h8v8h-8zM112 120h8v8h-8zM128 120h8v8h-8zM144 120h8v8h-8zM160 120h8v8h-8zM176 120h8v8h-8zM192 120h8v8h-8zM80 136h8v8H80zM96 136h8v8h-8zM112 136h8v8h-8zM128 136h8v8h-8zM144 136h8v8h-8zM160 136h8v8h-8zM176 136h8v8h-8zM192 136h8v8h-8zM80 152h8v8H80zM96 152h8v8h-8zM112 152h8v8h-8zM128 152h8v8h-8zM144 152h8v8h-8zM160 152h8v8h-8zM176 152h8v8h-8zM192 152h8v8h-8zM88 168h8v8h-8zM104 168h8v8h-8zM120 168h8v8h-8zM136 168h8v8h-8zM152 168h8v8h-8zM168 168h-8v8h8zM176 176h32v32h-32zM184 184v16h16v-16zM88 184h8v8h-8zM104 184h8v8h-8zM120 184h8v8h-8zM136 184h8v8h-8zM152 184h8v8h-8zM168 184h8v8h-8zM88 200h8v8h-8zM104 200h8v8h-8zM120 200h8v8h-8zM136 200h8v8h-8zM152 200h8v8h-8zM168 200h8v8h-8z"/>
</svg>
